<svg viewBox="0 0 197.62 33.2" xmlns="http://www.w3.org/2000/svg"><g fill="#2b2c31"><path d="m107.85 13.8v7.32c0 .69 0 1.37.06 2 0 0-.06 8.49 6.87 9.74 0 0 4.6.79 6.91-2.14a10.86 10.86 0 0 0 2.73 1.59 13.18 13.18 0 0 0 4.91.87 12 12 0 0 0 6.67-1.77 9.56 9.56 0 0 0 3.47-4.27 10.75 10.75 0 0 0 1.86 2.72 10.28 10.28 0 0 0 3.7 2.47 13.18 13.18 0 0 0 4.91.87 12 12 0 0 0 6.68-1.79 10.54 10.54 0 0 0 4.1-5.92h-5.57a4 4 0 0 1 -1.7 2 6.49 6.49 0 0 1 -7.4-.42 6.41 6.41 0 0 1 -1.56-4.46h16.63a16.08 16.08 0 0 0 -.44-5.12 12.71 12.71 0 0 0 -2-4.37 10.25 10.25 0 0 0 -3.59-3.06 11.07 11.07 0 0 0 -5.09-1.12 12 12 0 0 0 -4.8.94 11.21 11.21 0 0 0 -3.72 2.57 11 11 0 0 0 -2.06 3 12.21 12.21 0 0 0 -1.33-2.34 10.34 10.34 0 0 0 -3.59-3.06 11.09 11.09 0 0 0 -5.13-1.14 12 12 0 0 0 -4.79.94 11.25 11.25 0 0 0 -3.73 2.57 11.11 11.11 0 0 0 -2.4 3.85 13.35 13.35 0 0 0 -.85 4.82 14 14 0 0 0 .82 4.9c.09.24.19.47.29.7a2.07 2.07 0 0 1 -.64.6c-2 .64-3.07-1.2-3.56-2.59a10 10 0 0 1 -.29-2.1v-4l.17-4.79h4.61v-4.24h-4.63v-9.16l-6.37 2.25v6.91zm16.33 3.3a4.44 4.44 0 0 1 .85-1.6 4.79 4.79 0 0 1 1.6-1.27 5.54 5.54 0 0 1 2.52-.51 4.43 4.43 0 0 1 3.46 1.28 7.36 7.36 0 0 1 1.58 3.65h-10.3a7.57 7.57 0 0 1 .29-1.52m10.37 8.39a4 4 0 0 1 -1.7 2 6.49 6.49 0 0 1 -7.4-.42 6.41 6.41 0 0 1 -1.56-4.46h14.36a13.68 13.68 0 0 0 .58 2.86zm10.34-6.87a7.57 7.57 0 0 1 .29-1.52 4.44 4.44 0 0 1 .85-1.6 4.79 4.79 0 0 1 1.6-1.27 5.51 5.51 0 0 1 2.52-.51 4.43 4.43 0 0 1 3.46 1.25 7.36 7.36 0 0 1 1.58 3.65z"/><path d="m31.29 9.62a6.72 6.72 0 0 0 -2.29-.84 13.58 13.58 0 0 0 -2.05-.2 11.07 11.07 0 0 0 -3.89.7 9.46 9.46 0 0 0 -3.5 2.38 7.68 7.68 0 0 0 -2.62-2.3 7.44 7.44 0 0 0 -3.48-.78 12.58 12.58 0 0 0 -1.67.13 9.94 9.94 0 0 0 -1.79.44 8.57 8.57 0 0 0 -1.74.8 6.28 6.28 0 0 0 -1.47 1.27v-2h-6.79v23h6.74v-14.34a4.71 4.71 0 0 1 .78-2.7 3.17 3.17 0 0 1 2.81-1.18 2.9 2.9 0 0 1 2.62 1 4.93 4.93 0 0 1 .67 2.73v14.47h6.75v-14.15a4.64 4.64 0 0 1 .86-2.89 3 3 0 0 1 2.56-1.16 3 3 0 0 1 2.7 1.12 6.63 6.63 0 0 1 .76 3.59v13.49h6.75v-17.56a5.59 5.59 0 0 0 -.8-3.18 6 6 0 0 0 -1.9-1.84"/><path d="m106.46 9.11a12.22 12.22 0 0 0 -3.5.75 8.4 8.4 0 0 0 -2.81 1.66v-2.33h-6.75v5.51a12.27 12.27 0 0 0 -1.17-2 10.3 10.3 0 0 0 -3.58-3.05 11 11 0 0 0 -5.13-1.13 12 12 0 0 0 -4.79.93 11.15 11.15 0 0 0 -3.73 2.55 11.28 11.28 0 0 0 -2.41 3.85 13.56 13.56 0 0 0 -.84 4.82 14 14 0 0 0 .82 4.9c.09.24.19.47.29.7a2.07 2.07 0 0 1 -.64.6c-2 .64-3.07-1.2-3.56-2.6a9.76 9.76 0 0 1 -.29-2.09v-4l.17-4.79h4.64v-4.23h-4.64v-9.16l-6.34 2.25v6.91l-.07 1.89a21.85 21.85 0 0 0 -3.49-1.58 16.1 16.1 0 0 0 -5.26-.89 14.29 14.29 0 0 0 -3.5.44 9.25 9.25 0 0 0 -3.11 1.4 7.25 7.25 0 0 0 -3.12 6.21 4.87 4.87 0 0 0 1 3.24 7.12 7.12 0 0 0 2.53 1.91 15.34 15.34 0 0 0 3.26 1l3.27.64a12.88 12.88 0 0 1 2.53.74 1.42 1.42 0 0 1 1 1.34 1.73 1.73 0 0 1 -.42 1.23 2.88 2.88 0 0 1 -1 .72 4.25 4.25 0 0 1 -1.21.32c-.42 0-.77.06-1.06.06a8.64 8.64 0 0 1 -4-.86 13.58 13.58 0 0 1 -3.25-2.38l-3.59 3.11v-16.61a5.5 5.5 0 0 1 -6.71-.09v21.2h6.74v-3.39a23.33 23.33 0 0 0 1.86 1.49 12.85 12.85 0 0 0 2.53 1.4 14 14 0 0 0 2.84.82 18.46 18.46 0 0 0 3.41.29 16.29 16.29 0 0 0 3.72-.44 10.48 10.48 0 0 0 3.36-1.37 7.55 7.55 0 0 0 2.4-2.53 7.32 7.32 0 0 0 .33-.69 7.59 7.59 0 0 0 5.81 4.68s4.6.8 6.91-2.12a10.78 10.78 0 0 0 2.73 1.58 13.21 13.21 0 0 0 4.91.87 12.11 12.11 0 0 0 6.66-1.79 9.3 9.3 0 0 0 3.19-3.71v4.91h6.75v-13.32a2.76 2.76 0 0 1 1.3-2.64 12.1 12.1 0 0 1 4.32-1.08l.73-.09zm-46.24 10.11a14.69 14.69 0 0 0 -3.27-1l-3.26-.65a11.09 11.09 0 0 1 -2.54-.78 1.56 1.56 0 0 1 -1-1.47 1.42 1.42 0 0 1 .85-1.32 4.3 4.3 0 0 1 2-.49 10.54 10.54 0 0 1 1.69.16 10.05 10.05 0 0 1 1.77.47 10.54 10.54 0 0 1 1.62.78 5.34 5.34 0 0 1 1.31 1.08l2.61-2.6v7a7.4 7.4 0 0 0 -1.82-1.21m18.15-2.53a4.74 4.74 0 0 1 .84-1.6 4.81 4.81 0 0 1 1.61-1.27 5.54 5.54 0 0 1 2.52-.51 4.44 4.44 0 0 1 3.45 1.24 7.35 7.35 0 0 1 1.59 3.66h-10.26a7.57 7.57 0 0 1 .29-1.52m10.36 8.38a3.91 3.91 0 0 1 -1.69 2 6.49 6.49 0 0 1 -7.4-.42 6.41 6.41 0 0 1 -1.56-4.46h15.32v2.83z"/></g><g fill="#ef5746"><path d="m43 6.65a3.55 3.55 0 1 1 -3.58-3.55 3.55 3.55 0 0 1 3.58 3.55"/><path d="m168.79 28.74a3.55 3.55 0 1 1 -3.55-3.55 3.56 3.56 0 0 1 3.55 3.55"/><path d="m167.67 13.58v-4.28h4v-1.8a6.81 6.81 0 0 1 2-5.09c1.35-1.33 3.39-2 6.12-2 .59 0 1.19 0 1.79.06s1.17.08 1.73.11v4.8a21.27 21.27 0 0 0 -2.44-.13 2.65 2.65 0 0 0 -2 .61 2.88 2.88 0 0 0 -.58 2v1.44h4.71v4.28h-4.61v19h-6.68v-19z"/><path d="m197.58 9.1s-4.33.31-6.32 2.42v-2.33h-6.74v23h6.74v-14.19c.25-1.06 1.22-2.44 4.55-2.71l1.81-.23z"/></g><div xmlns="" id="divScriptsUsed" style="display: none"/><script xmlns="" id="globalVarsDetection" src="moz-extension://86a814d9-5a1c-49aa-b939-73edb9d19f09/js/wrs_env.js"/></svg>