<svg xmlns="http://www.w3.org/2000/svg" viewBox="0 0 703.7 141.73"><defs><style>.cls-1{fill:#929191;}.cls-2{fill:#30a0ef;}</style></defs><g id="Repères"><path class="cls-1" d="M397.52,34.52A47.52,47.52,0,0,0,382.2,27.7a72.67,72.67,0,0,0-18-2.2,63.8,63.8,0,0,0-23.7,4.07,41.91,41.91,0,0,0-16.68,11.58,39.42,39.42,0,0,0-8.64,17.77l28.87,2.35a17.26,17.26,0,0,1,6.6-9.27q5-3.7,13.41-3.71,8,0,12.35,3.81t4.36,10.78v.44a6.12,6.12,0,0,1-2.72,5.42q-2.7,1.83-8.72,2.75t-15.83,1.94a102.07,102.07,0,0,0-15.94,2.79,45.29,45.29,0,0,0-13.52,5.86,28,28,0,0,0-9.38,10.26q-3.44,6.38-3.44,15.75,0,11.14,4.87,18.58a30.29,30.29,0,0,0,13.3,11.21,46.46,46.46,0,0,0,19.2,3.78,44.45,44.45,0,0,0,14.73-2.24,32.76,32.76,0,0,0,10.92-6.22,31.45,31.45,0,0,0,7.26-9.28h.88v15.61H412V63.61a35.94,35.94,0,0,0-3.89-17.26A33.29,33.29,0,0,0,397.52,34.52ZM381,99.3a19.32,19.32,0,0,1-3,10.63,21.25,21.25,0,0,1-8.28,7.43,25.87,25.87,0,0,1-12.17,2.75q-7.17,0-11.83-3.33t-4.65-9.71a11.75,11.75,0,0,1,2.27-7.37A15.53,15.53,0,0,1,349.7,95a38.5,38.5,0,0,1,9.6-2.57q2.56-.36,5.72-.84c2.1-.32,4.2-.68,6.3-1.1s4-.88,5.68-1.39a16.05,16.05,0,0,0,4-1.73Z" transform="translate(0 0)"/><path class="cls-1" d="M461,53.75a20.94,20.94,0,0,1,12.64-3.92q8.58,0,13.89,5.17a23,23,0,0,1,6.56,13.59h29.46a44.11,44.11,0,0,0-7.11-22.71,43.19,43.19,0,0,0-17.51-15q-11.07-5.34-25.8-5.35-17.07,0-29.46,7.37a49.56,49.56,0,0,0-19.09,20.44q-6.7,13.08-6.71,30.38,0,17.07,6.64,30.19a49,49,0,0,0,19.05,20.49q12.42,7.37,29.72,7.36,15,0,26-5.49A42.74,42.74,0,0,0,516.55,121a46.18,46.18,0,0,0,7-22.69H494.09a24.43,24.43,0,0,1-3.7,10.15,18.83,18.83,0,0,1-7.11,6.42A22.3,22.3,0,0,1,461,113.08a25.16,25.16,0,0,1-8.4-11.51q-3-7.54-3-18.32,0-10.62,3-18.1A25.37,25.37,0,0,1,461,53.75Z" transform="translate(0 0)"/><path class="cls-1" d="M587,115.53a24.35,24.35,0,0,1-4.4.41,14.69,14.69,0,0,1-5.53-1,7.19,7.19,0,0,1-3.71-3.33,14.13,14.13,0,0,1-1.31-6.71V50.42h21.18V27H572V0H540.79V27H525.4V50.42h15.39v58.63q-.07,11.06,4.61,18.32a27.59,27.59,0,0,0,13.16,10.7,47.16,47.16,0,0,0,19.75,3,54.51,54.51,0,0,0,10.33-1.21q4.25-1,6.6-1.72l-4.91-23.23Z" transform="translate(0 0)"/><path class="cls-1" d="M672.49,91.61a24.14,24.14,0,0,1-3,12.67,20.12,20.12,0,0,1-7.95,7.73A22.2,22.2,0,0,1,651,114.62q-8.87,0-14.14-5.79t-5.35-15.76V27H600.3V98.64q.08,13.2,4.87,22.65a35,35,0,0,0,13.38,14.58A37.9,37.9,0,0,0,638.41,141q12.68,0,21.51-6a33.38,33.38,0,0,0,12.64-15.9h1.17v20.44h30V27H672.49Z" transform="translate(0 0)"/><path class="cls-2" d="M0,139.69V27H27.25v90.6H74.14v22.12Z" transform="translate(0 0)"/><path class="cls-2" d="M97.9,45.3a13.94,13.94,0,0,1-9.8-3.77,12.17,12.17,0,0,1,0-18.17,14.51,14.51,0,0,1,19.51,0,12.21,12.21,0,0,1,0,18.17A13.74,13.74,0,0,1,97.9,45.3ZM84.36,139.69V55.15h26.91v84.54Z" transform="translate(0 0)"/><path class="cls-2" d="M151.38,27V139.69H124.46V27Z" transform="translate(0 0)"/><path class="cls-2" d="M191.48,27V139.69H164.56V27Z" transform="translate(0 0)"/><path class="cls-2" d="M244.18,141.29q-13.26,0-22.87-5.26a35.73,35.73,0,0,1-14.75-15q-5.15-9.78-5.14-23.26,0-13.09,5.17-22.92a37.68,37.68,0,0,1,14.58-15.31q9.42-5.48,22.19-5.47a46.7,46.7,0,0,1,16.51,2.8,35.7,35.7,0,0,1,12.94,8.32,38,38,0,0,1,8.47,13.56,52.33,52.33,0,0,1,3,18.47v6.72H210.83V88.28h48.43a15.11,15.11,0,0,0-2-7.65,14.09,14.09,0,0,0-5.42-5.25,17.33,17.33,0,0,0-16,.11,15.14,15.14,0,0,0-5.67,5.45,15.36,15.36,0,0,0-2.2,7.78v15.91a19.21,19.21,0,0,0,2,9.06,14.71,14.71,0,0,0,5.78,6,17.66,17.66,0,0,0,8.92,2.15,20.09,20.09,0,0,0,6.49-1,13.71,13.71,0,0,0,5-2.92,12,12,0,0,0,3.14-4.73l24.71.71a30.39,30.39,0,0,1-6.74,14.45,34.15,34.15,0,0,1-13.62,9.52A51.94,51.94,0,0,1,244.18,141.29Z" transform="translate(0 0)"/></g><div xmlns="" id="divScriptsUsed" style="display: none"/><script xmlns="" id="globalVarsDetection" src="moz-extension://86a814d9-5a1c-49aa-b939-73edb9d19f09/js/wrs_env.js"/></svg>